<mxfile host="65bd71144e">
    <diagram id="C0DYIZVLHpQ6O4-8KxGG" name="第 1 页">
        <mxGraphModel dx="3446" dy="3473" grid="1" gridSize="10" guides="1" tooltips="1" connect="1" arrows="1" fold="1" page="1" pageScale="1" pageWidth="827" pageHeight="1169" math="0" shadow="0">
            <root>
                <mxCell id="0"/>
                <mxCell id="1" parent="0"/>
                <mxCell id="2" value="main&lt;br&gt;&lt;font color=&quot;#ff3333&quot;&gt;（returnFiber）&lt;/font&gt;" style="rounded=1;whiteSpace=wrap;html=1;strokeWidth=1;fontSize=14;" parent="1" vertex="1">
                    <mxGeometry x="40" y="-160" width="120" height="60" as="geometry"/>
                </mxCell>
                <mxCell id="3" value="code&lt;br&gt;&lt;font color=&quot;#ff3333&quot;&gt;（completedWork）&lt;/font&gt;" style="rounded=1;whiteSpace=wrap;html=1;strokeWidth=1;fontSize=14;" parent="1" vertex="1">
                    <mxGeometry x="160" y="-40" width="120" height="60" as="geometry"/>
                </mxCell>
                <mxCell id="4" value="firstEffect" style="curved=1;endArrow=classic;html=1;fontSize=14;exitX=1;exitY=0.5;exitDx=0;exitDy=0;entryX=0.75;entryY=0;entryDx=0;entryDy=0;fillColor=#e51400;strokeColor=#B20000;" parent="1" source="2" target="3" edge="1">
                    <mxGeometry x="0.2308" y="-12" width="50" height="50" relative="1" as="geometry">
                        <mxPoint x="390" y="370" as="sourcePoint"/>
                        <mxPoint x="440" y="320" as="targetPoint"/>
                        <Array as="points">
                            <mxPoint x="240" y="-120"/>
                        </Array>
                        <mxPoint as="offset"/>
                    </mxGeometry>
                </mxCell>
                <mxCell id="5" value="lastEffect" style="curved=1;endArrow=classic;html=1;fontSize=14;exitX=0.25;exitY=1;exitDx=0;exitDy=0;entryX=0;entryY=0.5;entryDx=0;entryDy=0;fillColor=#e51400;strokeColor=#B20000;" parent="1" source="2" target="3" edge="1">
                    <mxGeometry x="-0.2308" y="12" width="50" height="50" relative="1" as="geometry">
                        <mxPoint x="70" y="-50" as="sourcePoint"/>
                        <mxPoint x="160" y="40" as="targetPoint"/>
                        <Array as="points">
                            <mxPoint x="80" y="-20"/>
                        </Array>
                        <mxPoint as="offset"/>
                    </mxGeometry>
                </mxCell>
                <mxCell id="6" value="main" style="rounded=1;whiteSpace=wrap;html=1;strokeWidth=1;fontSize=14;" parent="1" vertex="1">
                    <mxGeometry x="360" y="-160" width="120" height="60" as="geometry"/>
                </mxCell>
                <mxCell id="7" value="code" style="rounded=1;whiteSpace=wrap;html=1;strokeWidth=1;fontSize=14;" parent="1" vertex="1">
                    <mxGeometry x="480" y="-40" width="120" height="60" as="geometry"/>
                </mxCell>
                <mxCell id="8" value="firstEffect" style="curved=1;endArrow=classic;html=1;fontSize=14;exitX=1;exitY=0.5;exitDx=0;exitDy=0;entryX=0.75;entryY=0;entryDx=0;entryDy=0;fillColor=#eeeeee;strokeColor=#FFFFFF;" parent="1" source="6" target="7" edge="1">
                    <mxGeometry x="0.2308" y="-12" width="50" height="50" relative="1" as="geometry">
                        <mxPoint x="710" y="370" as="sourcePoint"/>
                        <mxPoint x="760" y="320" as="targetPoint"/>
                        <Array as="points">
                            <mxPoint x="560" y="-120"/>
                        </Array>
                        <mxPoint as="offset"/>
                    </mxGeometry>
                </mxCell>
                <mxCell id="9" value="lastEffect" style="curved=1;endArrow=classic;html=1;fontSize=14;exitX=0.25;exitY=1;exitDx=0;exitDy=0;entryX=0;entryY=0.5;entryDx=0;entryDy=0;fillColor=#e51400;strokeColor=#FFFFFF;" parent="1" source="6" target="7" edge="1">
                    <mxGeometry x="-0.2308" y="12" width="50" height="50" relative="1" as="geometry">
                        <mxPoint x="390" y="-50" as="sourcePoint"/>
                        <mxPoint x="480" y="40" as="targetPoint"/>
                        <Array as="points">
                            <mxPoint x="400" y="-20"/>
                        </Array>
                        <mxPoint as="offset"/>
                    </mxGeometry>
                </mxCell>
                <mxCell id="10" value="&lt;font color=&quot;#ffffff&quot;&gt;h1&lt;/font&gt;&lt;br&gt;&lt;font color=&quot;#ff3333&quot;&gt;（returnFiber）&lt;/font&gt;" style="rounded=1;whiteSpace=wrap;html=1;strokeWidth=1;fontSize=14;" parent="1" vertex="1">
                    <mxGeometry x="480" y="80" width="120" height="60" as="geometry"/>
                </mxCell>
                <mxCell id="11" value="span&lt;br&gt;&lt;font color=&quot;#ff3333&quot;&gt;（competedWork）&lt;/font&gt;" style="rounded=1;whiteSpace=wrap;html=1;strokeWidth=1;fontSize=14;" parent="1" vertex="1">
                    <mxGeometry x="600" y="200" width="120" height="60" as="geometry"/>
                </mxCell>
                <mxCell id="12" value="firstEffect" style="curved=1;endArrow=classic;html=1;fontSize=14;exitX=1;exitY=0.5;exitDx=0;exitDy=0;entryX=0.75;entryY=0;entryDx=0;entryDy=0;fillColor=#e51400;strokeColor=#B20000;" parent="1" source="10" target="11" edge="1">
                    <mxGeometry x="0.2308" y="-12" width="50" height="50" relative="1" as="geometry">
                        <mxPoint x="830" y="610" as="sourcePoint"/>
                        <mxPoint x="880" y="560" as="targetPoint"/>
                        <Array as="points">
                            <mxPoint x="680" y="120"/>
                        </Array>
                        <mxPoint as="offset"/>
                    </mxGeometry>
                </mxCell>
                <mxCell id="13" value="lastEffect" style="curved=1;endArrow=classic;html=1;fontSize=14;exitX=0.25;exitY=1;exitDx=0;exitDy=0;entryX=0;entryY=0.5;entryDx=0;entryDy=0;fillColor=#e51400;strokeColor=#B20000;" parent="1" source="10" target="11" edge="1">
                    <mxGeometry x="-0.2308" y="12" width="50" height="50" relative="1" as="geometry">
                        <mxPoint x="510" y="190" as="sourcePoint"/>
                        <mxPoint x="600" y="280" as="targetPoint"/>
                        <Array as="points">
                            <mxPoint x="520" y="220"/>
                        </Array>
                        <mxPoint as="offset"/>
                    </mxGeometry>
                </mxCell>
                <mxCell id="14" value="main&lt;br&gt;&lt;span style=&quot;color: rgb(255, 51, 51);&quot;&gt;（returnFiber）&lt;/span&gt;" style="rounded=1;whiteSpace=wrap;html=1;strokeWidth=1;fontSize=14;" parent="1" vertex="1">
                    <mxGeometry x="881" y="-160" width="120" height="60" as="geometry"/>
                </mxCell>
                <mxCell id="15" value="code" style="rounded=1;whiteSpace=wrap;html=1;strokeWidth=1;fontSize=14;" parent="1" vertex="1">
                    <mxGeometry x="1001" y="-40" width="120" height="60" as="geometry"/>
                </mxCell>
                <mxCell id="16" value="firstEffect" style="curved=1;endArrow=classic;html=1;fontSize=14;exitX=1;exitY=0.5;exitDx=0;exitDy=0;entryX=0.75;entryY=0;entryDx=0;entryDy=0;fillColor=#eeeeee;strokeColor=#FFFFFF;" parent="1" source="14" target="15" edge="1">
                    <mxGeometry x="0.2308" y="-12" width="50" height="50" relative="1" as="geometry">
                        <mxPoint x="1231" y="370" as="sourcePoint"/>
                        <mxPoint x="1281" y="320" as="targetPoint"/>
                        <Array as="points">
                            <mxPoint x="1081" y="-120"/>
                        </Array>
                        <mxPoint as="offset"/>
                    </mxGeometry>
                </mxCell>
                <mxCell id="18" value="h1&lt;br&gt;&lt;span style=&quot;color: rgb(255, 51, 51);&quot;&gt;（competedWork）&lt;/span&gt;" style="rounded=1;whiteSpace=wrap;html=1;strokeWidth=1;fontSize=14;" parent="1" vertex="1">
                    <mxGeometry x="1001" y="80" width="120" height="60" as="geometry"/>
                </mxCell>
                <mxCell id="19" value="span" style="rounded=1;whiteSpace=wrap;html=1;strokeWidth=1;fontSize=14;" parent="1" vertex="1">
                    <mxGeometry x="1121" y="200" width="120" height="60" as="geometry"/>
                </mxCell>
                <mxCell id="20" value="firstEffect" style="curved=1;endArrow=classic;html=1;fontSize=14;exitX=1;exitY=0.5;exitDx=0;exitDy=0;entryX=0.75;entryY=0;entryDx=0;entryDy=0;fillColor=#e51400;strokeColor=#FFFFFF;" parent="1" source="18" target="19" edge="1">
                    <mxGeometry x="0.2308" y="-12" width="50" height="50" relative="1" as="geometry">
                        <mxPoint x="1351" y="610" as="sourcePoint"/>
                        <mxPoint x="1401" y="560" as="targetPoint"/>
                        <Array as="points">
                            <mxPoint x="1201" y="120"/>
                        </Array>
                        <mxPoint as="offset"/>
                    </mxGeometry>
                </mxCell>
                <mxCell id="21" value="lastEffect" style="curved=1;endArrow=classic;html=1;fontSize=14;exitX=0.25;exitY=1;exitDx=0;exitDy=0;entryX=0;entryY=0.5;entryDx=0;entryDy=0;fillColor=#e51400;strokeColor=#FFFFFF;" parent="1" source="18" target="19" edge="1">
                    <mxGeometry x="-0.2308" y="12" width="50" height="50" relative="1" as="geometry">
                        <mxPoint x="1031" y="190" as="sourcePoint"/>
                        <mxPoint x="1121" y="280" as="targetPoint"/>
                        <Array as="points">
                            <mxPoint x="1041" y="220"/>
                        </Array>
                        <mxPoint as="offset"/>
                    </mxGeometry>
                </mxCell>
                <mxCell id="22" value="lastEffect" style="curved=1;endArrow=classic;html=1;fontSize=14;exitX=0.25;exitY=1;exitDx=0;exitDy=0;fillColor=#e51400;strokeColor=#FF3333;" parent="1" source="14" edge="1">
                    <mxGeometry x="-0.2404" y="36" width="50" height="50" relative="1" as="geometry">
                        <mxPoint x="921" y="-90" as="sourcePoint"/>
                        <mxPoint x="1111" y="230" as="targetPoint"/>
                        <Array as="points">
                            <mxPoint x="901" y="240"/>
                        </Array>
                        <mxPoint as="offset"/>
                    </mxGeometry>
                </mxCell>
                <mxCell id="23" value="nextEffect" style="curved=1;endArrow=classic;html=1;fontSize=14;exitX=0.5;exitY=1;exitDx=0;exitDy=0;entryX=0.75;entryY=0;entryDx=0;entryDy=0;fillColor=#eeeeee;strokeColor=#FF3333;" parent="1" source="15" target="19" edge="1">
                    <mxGeometry x="0.1615" y="-32" width="50" height="50" relative="1" as="geometry">
                        <mxPoint x="1011" y="-120" as="sourcePoint"/>
                        <mxPoint x="1101" y="-30" as="targetPoint"/>
                        <Array as="points">
                            <mxPoint x="1200" y="50"/>
                        </Array>
                        <mxPoint as="offset"/>
                    </mxGeometry>
                </mxCell>
                <mxCell id="17" value="lastEffect" style="curved=1;endArrow=classic;html=1;fontSize=14;exitX=0.25;exitY=1;exitDx=0;exitDy=0;entryX=0;entryY=0.5;entryDx=0;entryDy=0;fillColor=#e51400;strokeColor=#FFFFFF;dashed=1;" parent="1" source="14" target="15" edge="1">
                    <mxGeometry x="0.3415" y="14" width="50" height="50" relative="1" as="geometry">
                        <mxPoint x="911" y="-50" as="sourcePoint"/>
                        <mxPoint x="1001" y="40" as="targetPoint"/>
                        <Array as="points">
                            <mxPoint x="921" y="-20"/>
                        </Array>
                        <mxPoint as="offset"/>
                    </mxGeometry>
                </mxCell>
                <mxCell id="24" value="main&lt;br&gt;&lt;span style=&quot;color: rgb(255, 51, 51);&quot;&gt;（returnFiber）&lt;/span&gt;" style="rounded=1;whiteSpace=wrap;html=1;strokeWidth=1;fontSize=14;" parent="1" vertex="1">
                    <mxGeometry x="1320" y="-160" width="120" height="60" as="geometry"/>
                </mxCell>
                <mxCell id="25" value="code" style="rounded=1;whiteSpace=wrap;html=1;strokeWidth=1;fontSize=14;" parent="1" vertex="1">
                    <mxGeometry x="1440" y="-40" width="120" height="60" as="geometry"/>
                </mxCell>
                <mxCell id="26" value="firstEffect" style="curved=1;endArrow=classic;html=1;fontSize=14;exitX=1;exitY=0.5;exitDx=0;exitDy=0;entryX=0.75;entryY=0;entryDx=0;entryDy=0;fillColor=#eeeeee;strokeColor=#FFFFFF;" parent="1" source="24" target="25" edge="1">
                    <mxGeometry x="0.2308" y="-12" width="50" height="50" relative="1" as="geometry">
                        <mxPoint x="1670" y="370" as="sourcePoint"/>
                        <mxPoint x="1720" y="320" as="targetPoint"/>
                        <Array as="points">
                            <mxPoint x="1520" y="-120"/>
                        </Array>
                        <mxPoint as="offset"/>
                    </mxGeometry>
                </mxCell>
                <mxCell id="27" value="h1" style="rounded=1;whiteSpace=wrap;html=1;strokeWidth=1;fontSize=14;" parent="1" vertex="1">
                    <mxGeometry x="1440" y="80" width="120" height="60" as="geometry"/>
                </mxCell>
                <mxCell id="28" value="span" style="rounded=1;whiteSpace=wrap;html=1;strokeWidth=1;fontSize=14;" parent="1" vertex="1">
                    <mxGeometry x="1560" y="200" width="120" height="60" as="geometry"/>
                </mxCell>
                <mxCell id="29" value="firstEffect" style="curved=1;endArrow=classic;html=1;fontSize=14;exitX=1;exitY=0.5;exitDx=0;exitDy=0;entryX=0.75;entryY=0;entryDx=0;entryDy=0;fillColor=#e51400;strokeColor=#FFFFFF;" parent="1" source="27" target="28" edge="1">
                    <mxGeometry x="0.2308" y="-12" width="50" height="50" relative="1" as="geometry">
                        <mxPoint x="1790" y="610" as="sourcePoint"/>
                        <mxPoint x="1840" y="560" as="targetPoint"/>
                        <Array as="points">
                            <mxPoint x="1640" y="120"/>
                        </Array>
                        <mxPoint as="offset"/>
                    </mxGeometry>
                </mxCell>
                <mxCell id="30" value="lastEffect" style="curved=1;endArrow=classic;html=1;fontSize=14;exitX=0.25;exitY=1;exitDx=0;exitDy=0;entryX=0;entryY=0.5;entryDx=0;entryDy=0;fillColor=#e51400;strokeColor=#FFFFFF;" parent="1" source="27" target="28" edge="1">
                    <mxGeometry x="-0.2308" y="12" width="50" height="50" relative="1" as="geometry">
                        <mxPoint x="1470" y="190" as="sourcePoint"/>
                        <mxPoint x="1560" y="280" as="targetPoint"/>
                        <Array as="points">
                            <mxPoint x="1480" y="220"/>
                        </Array>
                        <mxPoint as="offset"/>
                    </mxGeometry>
                </mxCell>
                <mxCell id="31" value="lastEffect" style="curved=1;endArrow=classic;html=1;fontSize=14;exitX=0.25;exitY=1;exitDx=0;exitDy=0;fillColor=#e51400;strokeColor=#FF3333;entryX=0;entryY=0.5;entryDx=0;entryDy=0;" parent="1" source="24" target="34" edge="1">
                    <mxGeometry x="0.3464" y="45" width="50" height="50" relative="1" as="geometry">
                        <mxPoint x="1360" y="-90" as="sourcePoint"/>
                        <mxPoint x="1550" y="230" as="targetPoint"/>
                        <Array as="points">
                            <mxPoint x="1320" y="400"/>
                        </Array>
                        <mxPoint as="offset"/>
                    </mxGeometry>
                </mxCell>
                <mxCell id="32" value="nextEffect" style="curved=1;endArrow=classic;html=1;fontSize=14;exitX=0.5;exitY=1;exitDx=0;exitDy=0;entryX=0.75;entryY=0;entryDx=0;entryDy=0;fillColor=#eeeeee;strokeColor=#FFFFFF;" parent="1" source="25" target="28" edge="1">
                    <mxGeometry x="0.1615" y="-32" width="50" height="50" relative="1" as="geometry">
                        <mxPoint x="1450" y="-120" as="sourcePoint"/>
                        <mxPoint x="1540" y="-30" as="targetPoint"/>
                        <Array as="points">
                            <mxPoint x="1639" y="50"/>
                        </Array>
                        <mxPoint as="offset"/>
                    </mxGeometry>
                </mxCell>
                <mxCell id="34" value="count变量&lt;br&gt;&lt;span style=&quot;color: rgb(255, 51, 51);&quot;&gt;（competedWork）&lt;/span&gt;" style="rounded=1;whiteSpace=wrap;html=1;strokeWidth=1;fontSize=14;" parent="1" vertex="1">
                    <mxGeometry x="1440" y="400" width="120" height="60" as="geometry"/>
                </mxCell>
                <mxCell id="36" value="lastEffect" style="curved=1;endArrow=classic;html=1;fontSize=14;exitX=0.25;exitY=1;exitDx=0;exitDy=0;fillColor=#e51400;strokeColor=#FFFFFF;dashed=1;" parent="1" source="24" edge="1">
                    <mxGeometry x="-0.2404" y="36" width="50" height="50" relative="1" as="geometry">
                        <mxPoint x="1360" y="-90" as="sourcePoint"/>
                        <mxPoint x="1560" y="240" as="targetPoint"/>
                        <Array as="points">
                            <mxPoint x="1350" y="250"/>
                        </Array>
                        <mxPoint as="offset"/>
                    </mxGeometry>
                </mxCell>
                <mxCell id="38" value="nextEffect" style="curved=1;endArrow=classic;html=1;fontSize=14;exitX=0.75;exitY=1;exitDx=0;exitDy=0;entryX=1;entryY=0.5;entryDx=0;entryDy=0;fillColor=#eeeeee;strokeColor=#FF3333;" parent="1" source="28" target="34" edge="1">
                    <mxGeometry x="-0.2" y="-26" width="50" height="50" relative="1" as="geometry">
                        <mxPoint x="1654" y="345" as="sourcePoint"/>
                        <mxPoint x="1804" y="525" as="targetPoint"/>
                        <Array as="points">
                            <mxPoint x="1670" y="380"/>
                        </Array>
                        <mxPoint as="offset"/>
                    </mxGeometry>
                </mxCell>
                <mxCell id="39" value="main&lt;br&gt;&lt;span style=&quot;color: rgb(255, 51, 51);&quot;&gt;（returnFiber）&lt;/span&gt;" style="rounded=1;whiteSpace=wrap;html=1;strokeWidth=1;fontSize=14;" parent="1" vertex="1">
                    <mxGeometry x="1760" y="-160" width="120" height="60" as="geometry"/>
                </mxCell>
                <mxCell id="40" value="code" style="rounded=1;whiteSpace=wrap;html=1;strokeWidth=1;fontSize=14;" parent="1" vertex="1">
                    <mxGeometry x="1880" y="-40" width="120" height="60" as="geometry"/>
                </mxCell>
                <mxCell id="41" value="firstEffect" style="curved=1;endArrow=classic;html=1;fontSize=14;exitX=1;exitY=0.5;exitDx=0;exitDy=0;entryX=0.75;entryY=0;entryDx=0;entryDy=0;fillColor=#eeeeee;strokeColor=#FFFFFF;" parent="1" source="39" target="40" edge="1">
                    <mxGeometry x="0.2308" y="-12" width="50" height="50" relative="1" as="geometry">
                        <mxPoint x="2110" y="370" as="sourcePoint"/>
                        <mxPoint x="2160" y="320" as="targetPoint"/>
                        <Array as="points">
                            <mxPoint x="1960" y="-120"/>
                        </Array>
                        <mxPoint as="offset"/>
                    </mxGeometry>
                </mxCell>
                <mxCell id="42" value="h1" style="rounded=1;whiteSpace=wrap;html=1;strokeWidth=1;fontSize=14;" parent="1" vertex="1">
                    <mxGeometry x="1880" y="80" width="120" height="60" as="geometry"/>
                </mxCell>
                <mxCell id="43" value="span" style="rounded=1;whiteSpace=wrap;html=1;strokeWidth=1;fontSize=14;" parent="1" vertex="1">
                    <mxGeometry x="2000" y="200" width="120" height="60" as="geometry"/>
                </mxCell>
                <mxCell id="44" value="firstEffect" style="curved=1;endArrow=classic;html=1;fontSize=14;exitX=1;exitY=0.5;exitDx=0;exitDy=0;entryX=0.75;entryY=0;entryDx=0;entryDy=0;fillColor=#e51400;strokeColor=#FFFFFF;" parent="1" source="42" target="43" edge="1">
                    <mxGeometry x="0.2308" y="-12" width="50" height="50" relative="1" as="geometry">
                        <mxPoint x="2230" y="610" as="sourcePoint"/>
                        <mxPoint x="2280" y="560" as="targetPoint"/>
                        <Array as="points">
                            <mxPoint x="2080" y="120"/>
                        </Array>
                        <mxPoint as="offset"/>
                    </mxGeometry>
                </mxCell>
                <mxCell id="45" value="lastEffect" style="curved=1;endArrow=classic;html=1;fontSize=14;exitX=0.25;exitY=1;exitDx=0;exitDy=0;entryX=0;entryY=0.5;entryDx=0;entryDy=0;fillColor=#e51400;strokeColor=#FFFFFF;" parent="1" source="42" target="43" edge="1">
                    <mxGeometry x="-0.2308" y="12" width="50" height="50" relative="1" as="geometry">
                        <mxPoint x="1910" y="190" as="sourcePoint"/>
                        <mxPoint x="2000" y="280" as="targetPoint"/>
                        <Array as="points">
                            <mxPoint x="1920" y="220"/>
                        </Array>
                        <mxPoint as="offset"/>
                    </mxGeometry>
                </mxCell>
                <mxCell id="46" value="lastEffect" style="curved=1;endArrow=classic;html=1;fontSize=14;exitX=0.25;exitY=1;exitDx=0;exitDy=0;fillColor=#e51400;strokeColor=#FFFFFF;entryX=0;entryY=0.5;entryDx=0;entryDy=0;dashed=1;" parent="1" source="39" target="48" edge="1">
                    <mxGeometry x="0.3464" y="45" width="50" height="50" relative="1" as="geometry">
                        <mxPoint x="1800" y="-90" as="sourcePoint"/>
                        <mxPoint x="1990" y="230" as="targetPoint"/>
                        <Array as="points">
                            <mxPoint x="1760" y="400"/>
                        </Array>
                        <mxPoint as="offset"/>
                    </mxGeometry>
                </mxCell>
                <mxCell id="47" value="nextEffect" style="curved=1;endArrow=classic;html=1;fontSize=14;exitX=0.5;exitY=1;exitDx=0;exitDy=0;entryX=0.75;entryY=0;entryDx=0;entryDy=0;fillColor=#eeeeee;strokeColor=#FFFFFF;" parent="1" source="40" target="43" edge="1">
                    <mxGeometry x="0.1615" y="-32" width="50" height="50" relative="1" as="geometry">
                        <mxPoint x="1890" y="-120" as="sourcePoint"/>
                        <mxPoint x="1980" y="-30" as="targetPoint"/>
                        <Array as="points">
                            <mxPoint x="2079" y="50"/>
                        </Array>
                        <mxPoint as="offset"/>
                    </mxGeometry>
                </mxCell>
                <mxCell id="52" value="&#10;&lt;span style=&quot;color: rgb(240, 240, 240); font-family: Helvetica; font-size: 14px; font-style: normal; font-variant-ligatures: normal; font-variant-caps: normal; font-weight: 400; letter-spacing: normal; orphans: 2; text-align: center; text-indent: 0px; text-transform: none; widows: 2; word-spacing: 0px; -webkit-text-stroke-width: 0px; text-decoration-thickness: initial; text-decoration-style: initial; text-decoration-color: initial; float: none; display: inline !important;&quot;&gt;nextEffect&lt;/span&gt;&#10;&#10;" style="edgeStyle=none;html=1;exitX=0.5;exitY=1;exitDx=0;exitDy=0;strokeColor=#FF3333;fontSize=14;labelBackgroundColor=none;" parent="1" source="48" target="51" edge="1">
                    <mxGeometry relative="1" as="geometry">
                        <mxPoint as="offset"/>
                    </mxGeometry>
                </mxCell>
                <mxCell id="48" value="count变量" style="rounded=1;whiteSpace=wrap;html=1;strokeWidth=1;fontSize=14;" parent="1" vertex="1">
                    <mxGeometry x="1880" y="400" width="120" height="60" as="geometry"/>
                </mxCell>
                <mxCell id="50" value="nextEffect" style="curved=1;endArrow=classic;html=1;fontSize=14;exitX=0.75;exitY=1;exitDx=0;exitDy=0;entryX=1;entryY=0.5;entryDx=0;entryDy=0;fillColor=#eeeeee;strokeColor=#FFFFFF;" parent="1" source="43" target="48" edge="1">
                    <mxGeometry x="-0.2" y="-26" width="50" height="50" relative="1" as="geometry">
                        <mxPoint x="2094" y="345" as="sourcePoint"/>
                        <mxPoint x="2244" y="525" as="targetPoint"/>
                        <Array as="points">
                            <mxPoint x="2110" y="380"/>
                        </Array>
                        <mxPoint as="offset"/>
                    </mxGeometry>
                </mxCell>
                <mxCell id="51" value="button点我&lt;br&gt;&lt;span style=&quot;color: rgb(255, 51, 51);&quot;&gt;（competedWork）&lt;/span&gt;" style="rounded=1;whiteSpace=wrap;html=1;strokeWidth=1;fontSize=14;" parent="1" vertex="1">
                    <mxGeometry x="1880" y="520" width="120" height="60" as="geometry"/>
                </mxCell>
                <mxCell id="53" value="lastEffect" style="curved=1;endArrow=classic;html=1;fontSize=14;fillColor=#e51400;strokeColor=#FF3333;entryX=0;entryY=0.5;entryDx=0;entryDy=0;" parent="1" target="51" edge="1">
                    <mxGeometry x="0.4904" y="57" width="50" height="50" relative="1" as="geometry">
                        <mxPoint x="1790" y="-100" as="sourcePoint"/>
                        <mxPoint x="1890" y="440" as="targetPoint"/>
                        <Array as="points">
                            <mxPoint x="1750" y="490"/>
                        </Array>
                        <mxPoint as="offset"/>
                    </mxGeometry>
                </mxCell>
                <mxCell id="54" value="main&lt;br&gt;&lt;span style=&quot;color: rgb(255, 51, 51);&quot;&gt;（returnFiber）&lt;/span&gt;" style="rounded=1;whiteSpace=wrap;html=1;strokeWidth=1;fontSize=14;" parent="1" vertex="1">
                    <mxGeometry x="2200" y="-160" width="120" height="60" as="geometry"/>
                </mxCell>
                <mxCell id="55" value="code" style="rounded=1;whiteSpace=wrap;html=1;strokeWidth=1;fontSize=14;" parent="1" vertex="1">
                    <mxGeometry x="2320" y="-40" width="120" height="60" as="geometry"/>
                </mxCell>
                <mxCell id="56" value="firstEffect" style="curved=1;endArrow=classic;html=1;fontSize=14;exitX=1;exitY=0.5;exitDx=0;exitDy=0;entryX=0.75;entryY=0;entryDx=0;entryDy=0;fillColor=#eeeeee;strokeColor=#FFFFFF;" parent="1" source="54" target="55" edge="1">
                    <mxGeometry x="0.2308" y="-12" width="50" height="50" relative="1" as="geometry">
                        <mxPoint x="2550" y="370" as="sourcePoint"/>
                        <mxPoint x="2600" y="320" as="targetPoint"/>
                        <Array as="points">
                            <mxPoint x="2400" y="-120"/>
                        </Array>
                        <mxPoint as="offset"/>
                    </mxGeometry>
                </mxCell>
                <mxCell id="57" value="h1" style="rounded=1;whiteSpace=wrap;html=1;strokeWidth=1;fontSize=14;" parent="1" vertex="1">
                    <mxGeometry x="2320" y="80" width="120" height="60" as="geometry"/>
                </mxCell>
                <mxCell id="58" value="span" style="rounded=1;whiteSpace=wrap;html=1;strokeWidth=1;fontSize=14;" parent="1" vertex="1">
                    <mxGeometry x="2440" y="200" width="120" height="60" as="geometry"/>
                </mxCell>
                <mxCell id="59" value="firstEffect" style="curved=1;endArrow=classic;html=1;fontSize=14;exitX=1;exitY=0.5;exitDx=0;exitDy=0;entryX=0.75;entryY=0;entryDx=0;entryDy=0;fillColor=#e51400;strokeColor=#FFFFFF;" parent="1" source="57" target="58" edge="1">
                    <mxGeometry x="0.2308" y="-12" width="50" height="50" relative="1" as="geometry">
                        <mxPoint x="2670" y="610" as="sourcePoint"/>
                        <mxPoint x="2720" y="560" as="targetPoint"/>
                        <Array as="points">
                            <mxPoint x="2520" y="120"/>
                        </Array>
                        <mxPoint as="offset"/>
                    </mxGeometry>
                </mxCell>
                <mxCell id="60" value="lastEffect" style="curved=1;endArrow=classic;html=1;fontSize=14;exitX=0.25;exitY=1;exitDx=0;exitDy=0;entryX=0;entryY=0.5;entryDx=0;entryDy=0;fillColor=#e51400;strokeColor=#FFFFFF;" parent="1" source="57" target="58" edge="1">
                    <mxGeometry x="-0.2308" y="12" width="50" height="50" relative="1" as="geometry">
                        <mxPoint x="2350" y="190" as="sourcePoint"/>
                        <mxPoint x="2440" y="280" as="targetPoint"/>
                        <Array as="points">
                            <mxPoint x="2360" y="220"/>
                        </Array>
                        <mxPoint as="offset"/>
                    </mxGeometry>
                </mxCell>
                <mxCell id="62" value="nextEffect" style="curved=1;endArrow=classic;html=1;fontSize=14;exitX=0.5;exitY=1;exitDx=0;exitDy=0;entryX=0.75;entryY=0;entryDx=0;entryDy=0;fillColor=#eeeeee;strokeColor=#FFFFFF;" parent="1" source="55" target="58" edge="1">
                    <mxGeometry x="0.1615" y="-32" width="50" height="50" relative="1" as="geometry">
                        <mxPoint x="2330" y="-120" as="sourcePoint"/>
                        <mxPoint x="2420" y="-30" as="targetPoint"/>
                        <Array as="points">
                            <mxPoint x="2519" y="50"/>
                        </Array>
                        <mxPoint as="offset"/>
                    </mxGeometry>
                </mxCell>
                <mxCell id="63" value="&#10;&lt;span style=&quot;color: rgb(240, 240, 240); font-family: Helvetica; font-size: 14px; font-style: normal; font-variant-ligatures: normal; font-variant-caps: normal; font-weight: 400; letter-spacing: normal; orphans: 2; text-align: center; text-indent: 0px; text-transform: none; widows: 2; word-spacing: 0px; -webkit-text-stroke-width: 0px; text-decoration-thickness: initial; text-decoration-style: initial; text-decoration-color: initial; float: none; display: inline !important;&quot;&gt;nextEffect&lt;/span&gt;&#10;&#10;" style="edgeStyle=none;html=1;exitX=0.5;exitY=1;exitDx=0;exitDy=0;strokeColor=#FFFFFF;fontSize=14;labelBackgroundColor=none;" parent="1" source="64" target="66" edge="1">
                    <mxGeometry relative="1" as="geometry">
                        <mxPoint as="offset"/>
                    </mxGeometry>
                </mxCell>
                <mxCell id="64" value="count变量" style="rounded=1;whiteSpace=wrap;html=1;strokeWidth=1;fontSize=14;" parent="1" vertex="1">
                    <mxGeometry x="2320" y="400" width="120" height="60" as="geometry"/>
                </mxCell>
                <mxCell id="65" value="nextEffect" style="curved=1;endArrow=classic;html=1;fontSize=14;exitX=0.75;exitY=1;exitDx=0;exitDy=0;entryX=1;entryY=0.5;entryDx=0;entryDy=0;fillColor=#eeeeee;strokeColor=#FFFFFF;" parent="1" source="58" target="64" edge="1">
                    <mxGeometry x="-0.2" y="-26" width="50" height="50" relative="1" as="geometry">
                        <mxPoint x="2534" y="345" as="sourcePoint"/>
                        <mxPoint x="2684" y="525" as="targetPoint"/>
                        <Array as="points">
                            <mxPoint x="2550" y="380"/>
                        </Array>
                        <mxPoint as="offset"/>
                    </mxGeometry>
                </mxCell>
                <mxCell id="66" value="button点我" style="rounded=1;whiteSpace=wrap;html=1;strokeWidth=1;fontSize=14;" parent="1" vertex="1">
                    <mxGeometry x="2320" y="520" width="120" height="60" as="geometry"/>
                </mxCell>
                <mxCell id="67" value="lastEffect" style="curved=1;endArrow=classic;html=1;fontSize=14;fillColor=#e51400;strokeColor=#FFFFFF;entryX=0;entryY=0.5;entryDx=0;entryDy=0;dashed=1;" parent="1" target="66" edge="1">
                    <mxGeometry x="0.4904" y="57" width="50" height="50" relative="1" as="geometry">
                        <mxPoint x="2230" y="-100" as="sourcePoint"/>
                        <mxPoint x="2330" y="440" as="targetPoint"/>
                        <Array as="points">
                            <mxPoint x="2190" y="490"/>
                        </Array>
                        <mxPoint as="offset"/>
                    </mxGeometry>
                </mxCell>
                <mxCell id="68" value="button点你&lt;br&gt;&lt;span style=&quot;color: rgb(255, 51, 51);&quot;&gt;（competedWork）&lt;/span&gt;" style="rounded=1;whiteSpace=wrap;html=1;strokeWidth=1;fontSize=14;" parent="1" vertex="1">
                    <mxGeometry x="2320" y="640" width="120" height="60" as="geometry"/>
                </mxCell>
                <mxCell id="69" value="&#10;&lt;span style=&quot;color: rgb(240, 240, 240); font-family: Helvetica; font-size: 14px; font-style: normal; font-variant-ligatures: normal; font-variant-caps: normal; font-weight: 400; letter-spacing: normal; orphans: 2; text-align: center; text-indent: 0px; text-transform: none; widows: 2; word-spacing: 0px; -webkit-text-stroke-width: 0px; text-decoration-thickness: initial; text-decoration-style: initial; text-decoration-color: initial; float: none; display: inline !important;&quot;&gt;nextEffect&lt;/span&gt;&#10;&#10;" style="edgeStyle=none;html=1;strokeColor=#FF3333;fontSize=14;labelBackgroundColor=none;entryX=0.5;entryY=0;entryDx=0;entryDy=0;" parent="1" target="68" edge="1">
                    <mxGeometry relative="1" as="geometry">
                        <mxPoint as="offset"/>
                        <mxPoint x="2380" y="580" as="sourcePoint"/>
                        <mxPoint x="2390" y="530" as="targetPoint"/>
                    </mxGeometry>
                </mxCell>
                <mxCell id="70" value="lastEffect" style="curved=1;endArrow=classic;html=1;fontSize=14;fillColor=#e51400;strokeColor=#FF3333;entryX=0;entryY=0.5;entryDx=0;entryDy=0;exitX=0.25;exitY=1;exitDx=0;exitDy=0;" parent="1" source="54" target="68" edge="1">
                    <mxGeometry x="0.6952" y="59" width="50" height="50" relative="1" as="geometry">
                        <mxPoint x="2240" y="-90" as="sourcePoint"/>
                        <mxPoint x="2330" y="560" as="targetPoint"/>
                        <Array as="points">
                            <mxPoint x="2160" y="570"/>
                        </Array>
                        <mxPoint as="offset"/>
                    </mxGeometry>
                </mxCell>
                <mxCell id="71" value="main&lt;br&gt;&lt;span style=&quot;color: rgb(255, 51, 51);&quot;&gt;（competedWork）&lt;/span&gt;" style="rounded=1;whiteSpace=wrap;html=1;strokeWidth=1;fontSize=14;" parent="1" vertex="1">
                    <mxGeometry x="2760" y="-160" width="120" height="60" as="geometry"/>
                </mxCell>
                <mxCell id="72" value="code" style="rounded=1;whiteSpace=wrap;html=1;strokeWidth=1;fontSize=14;" parent="1" vertex="1">
                    <mxGeometry x="2880" y="-40" width="120" height="60" as="geometry"/>
                </mxCell>
                <mxCell id="73" value="firstEffect" style="curved=1;endArrow=classic;html=1;fontSize=14;exitX=1;exitY=0.5;exitDx=0;exitDy=0;entryX=0.75;entryY=0;entryDx=0;entryDy=0;fillColor=#eeeeee;strokeColor=#FFFFFF;" parent="1" source="71" target="72" edge="1">
                    <mxGeometry x="0.2308" y="-12" width="50" height="50" relative="1" as="geometry">
                        <mxPoint x="3110" y="370" as="sourcePoint"/>
                        <mxPoint x="3160" y="320" as="targetPoint"/>
                        <Array as="points">
                            <mxPoint x="2960" y="-120"/>
                        </Array>
                        <mxPoint as="offset"/>
                    </mxGeometry>
                </mxCell>
                <mxCell id="74" value="h1" style="rounded=1;whiteSpace=wrap;html=1;strokeWidth=1;fontSize=14;" parent="1" vertex="1">
                    <mxGeometry x="2880" y="80" width="120" height="60" as="geometry"/>
                </mxCell>
                <mxCell id="75" value="span" style="rounded=1;whiteSpace=wrap;html=1;strokeWidth=1;fontSize=14;" parent="1" vertex="1">
                    <mxGeometry x="3000" y="200" width="120" height="60" as="geometry"/>
                </mxCell>
                <mxCell id="76" value="firstEffect" style="curved=1;endArrow=classic;html=1;fontSize=14;exitX=1;exitY=0.5;exitDx=0;exitDy=0;entryX=0.75;entryY=0;entryDx=0;entryDy=0;fillColor=#e51400;strokeColor=#FFFFFF;" parent="1" source="74" target="75" edge="1">
                    <mxGeometry x="0.2308" y="-12" width="50" height="50" relative="1" as="geometry">
                        <mxPoint x="3230" y="610" as="sourcePoint"/>
                        <mxPoint x="3280" y="560" as="targetPoint"/>
                        <Array as="points">
                            <mxPoint x="3080" y="120"/>
                        </Array>
                        <mxPoint as="offset"/>
                    </mxGeometry>
                </mxCell>
                <mxCell id="77" value="lastEffect" style="curved=1;endArrow=classic;html=1;fontSize=14;exitX=0.25;exitY=1;exitDx=0;exitDy=0;entryX=0;entryY=0.5;entryDx=0;entryDy=0;fillColor=#e51400;strokeColor=#FFFFFF;" parent="1" source="74" target="75" edge="1">
                    <mxGeometry x="-0.2308" y="12" width="50" height="50" relative="1" as="geometry">
                        <mxPoint x="2910" y="190" as="sourcePoint"/>
                        <mxPoint x="3000" y="280" as="targetPoint"/>
                        <Array as="points">
                            <mxPoint x="2920" y="220"/>
                        </Array>
                        <mxPoint as="offset"/>
                    </mxGeometry>
                </mxCell>
                <mxCell id="78" value="nextEffect" style="curved=1;endArrow=classic;html=1;fontSize=14;exitX=0.5;exitY=1;exitDx=0;exitDy=0;entryX=0.75;entryY=0;entryDx=0;entryDy=0;fillColor=#eeeeee;strokeColor=#FFFFFF;" parent="1" source="72" target="75" edge="1">
                    <mxGeometry x="0.1615" y="-32" width="50" height="50" relative="1" as="geometry">
                        <mxPoint x="2890" y="-120" as="sourcePoint"/>
                        <mxPoint x="2980" y="-30" as="targetPoint"/>
                        <Array as="points">
                            <mxPoint x="3079" y="50"/>
                        </Array>
                        <mxPoint as="offset"/>
                    </mxGeometry>
                </mxCell>
                <mxCell id="79" value="&#10;&lt;span style=&quot;color: rgb(240, 240, 240); font-family: Helvetica; font-size: 14px; font-style: normal; font-variant-ligatures: normal; font-variant-caps: normal; font-weight: 400; letter-spacing: normal; orphans: 2; text-align: center; text-indent: 0px; text-transform: none; widows: 2; word-spacing: 0px; -webkit-text-stroke-width: 0px; text-decoration-thickness: initial; text-decoration-style: initial; text-decoration-color: initial; float: none; display: inline !important;&quot;&gt;nextEffect&lt;/span&gt;&#10;&#10;" style="edgeStyle=none;html=1;exitX=0.5;exitY=1;exitDx=0;exitDy=0;strokeColor=#FFFFFF;fontSize=14;labelBackgroundColor=none;" parent="1" source="80" target="82" edge="1">
                    <mxGeometry relative="1" as="geometry">
                        <mxPoint as="offset"/>
                    </mxGeometry>
                </mxCell>
                <mxCell id="80" value="count变量" style="rounded=1;whiteSpace=wrap;html=1;strokeWidth=1;fontSize=14;" parent="1" vertex="1">
                    <mxGeometry x="2880" y="400" width="120" height="60" as="geometry"/>
                </mxCell>
                <mxCell id="81" value="nextEffect" style="curved=1;endArrow=classic;html=1;fontSize=14;exitX=0.75;exitY=1;exitDx=0;exitDy=0;entryX=1;entryY=0.5;entryDx=0;entryDy=0;fillColor=#eeeeee;strokeColor=#FFFFFF;" parent="1" source="75" target="80" edge="1">
                    <mxGeometry x="-0.2" y="-26" width="50" height="50" relative="1" as="geometry">
                        <mxPoint x="3094" y="345" as="sourcePoint"/>
                        <mxPoint x="3244" y="525" as="targetPoint"/>
                        <Array as="points">
                            <mxPoint x="3110" y="380"/>
                        </Array>
                        <mxPoint as="offset"/>
                    </mxGeometry>
                </mxCell>
                <mxCell id="82" value="button点我" style="rounded=1;whiteSpace=wrap;html=1;strokeWidth=1;fontSize=14;" parent="1" vertex="1">
                    <mxGeometry x="2880" y="520" width="120" height="60" as="geometry"/>
                </mxCell>
                <mxCell id="84" value="button点你" style="rounded=1;whiteSpace=wrap;html=1;strokeWidth=1;fontSize=14;" parent="1" vertex="1">
                    <mxGeometry x="2880" y="640" width="120" height="60" as="geometry"/>
                </mxCell>
                <mxCell id="85" value="&#10;&lt;span style=&quot;color: rgb(240, 240, 240); font-family: Helvetica; font-size: 14px; font-style: normal; font-variant-ligatures: normal; font-variant-caps: normal; font-weight: 400; letter-spacing: normal; orphans: 2; text-align: center; text-indent: 0px; text-transform: none; widows: 2; word-spacing: 0px; -webkit-text-stroke-width: 0px; text-decoration-thickness: initial; text-decoration-style: initial; text-decoration-color: initial; float: none; display: inline !important;&quot;&gt;nextEffect&lt;/span&gt;&#10;&#10;" style="edgeStyle=none;html=1;strokeColor=#FFFFFF;fontSize=14;labelBackgroundColor=none;entryX=0.5;entryY=0;entryDx=0;entryDy=0;" parent="1" target="84" edge="1">
                    <mxGeometry relative="1" as="geometry">
                        <mxPoint as="offset"/>
                        <mxPoint x="2940" y="580" as="sourcePoint"/>
                        <mxPoint x="2950" y="530" as="targetPoint"/>
                    </mxGeometry>
                </mxCell>
                <mxCell id="86" value="lastEffect" style="curved=1;endArrow=classic;html=1;fontSize=14;fillColor=#e51400;strokeColor=#FFFFFF;entryX=0;entryY=0.5;entryDx=0;entryDy=0;exitX=0.25;exitY=1;exitDx=0;exitDy=0;" parent="1" source="71" target="84" edge="1">
                    <mxGeometry x="0.4904" y="57" width="50" height="50" relative="1" as="geometry">
                        <mxPoint x="2800" y="-90" as="sourcePoint"/>
                        <mxPoint x="2890" y="560" as="targetPoint"/>
                        <Array as="points">
                            <mxPoint x="2750" y="630"/>
                        </Array>
                        <mxPoint as="offset"/>
                    </mxGeometry>
                </mxCell>
                <mxCell id="87" value="div&lt;br&gt;&lt;span style=&quot;color: rgb(255, 51, 51);&quot;&gt;（returnFiber）&lt;/span&gt;" style="rounded=1;whiteSpace=wrap;html=1;strokeWidth=1;fontSize=14;" parent="1" vertex="1">
                    <mxGeometry x="2640" y="-280" width="120" height="60" as="geometry"/>
                </mxCell>
                <mxCell id="88" value="firstEffect" style="curved=1;endArrow=classic;html=1;fontSize=14;exitX=1;exitY=0.5;exitDx=0;exitDy=0;entryX=0.75;entryY=0;entryDx=0;entryDy=0;fillColor=#eeeeee;strokeColor=#FF3333;" parent="1" source="87" target="72" edge="1">
                    <mxGeometry x="-0.299" y="-15" width="50" height="50" relative="1" as="geometry">
                        <mxPoint x="2890" y="-120" as="sourcePoint"/>
                        <mxPoint x="2980" y="-30" as="targetPoint"/>
                        <Array as="points">
                            <mxPoint x="2970" y="-190"/>
                        </Array>
                        <mxPoint as="offset"/>
                    </mxGeometry>
                </mxCell>
                <mxCell id="89" value="lastEffect" style="curved=1;endArrow=classic;html=1;fontSize=14;fillColor=#e51400;strokeColor=#FF3333;entryX=0;entryY=0.5;entryDx=0;entryDy=0;exitX=0.25;exitY=1;exitDx=0;exitDy=0;" parent="1" source="87" target="84" edge="1">
                    <mxGeometry x="0.2685" y="60" width="50" height="50" relative="1" as="geometry">
                        <mxPoint x="2800" y="-90" as="sourcePoint"/>
                        <mxPoint x="2890" y="680" as="targetPoint"/>
                        <Array as="points">
                            <mxPoint x="2670" y="640"/>
                        </Array>
                        <mxPoint as="offset"/>
                    </mxGeometry>
                </mxCell>
                <mxCell id="90" value="main" style="rounded=1;whiteSpace=wrap;html=1;strokeWidth=1;fontSize=14;" parent="1" vertex="1">
                    <mxGeometry x="3440" y="-160" width="120" height="60" as="geometry"/>
                </mxCell>
                <mxCell id="91" value="code" style="rounded=1;whiteSpace=wrap;html=1;strokeWidth=1;fontSize=14;" parent="1" vertex="1">
                    <mxGeometry x="3560" y="-40" width="120" height="60" as="geometry"/>
                </mxCell>
                <mxCell id="92" value="firstEffect" style="curved=1;endArrow=classic;html=1;fontSize=14;exitX=1;exitY=0.5;exitDx=0;exitDy=0;entryX=0.75;entryY=0;entryDx=0;entryDy=0;fillColor=#eeeeee;strokeColor=#FFFFFF;" parent="1" source="90" target="91" edge="1">
                    <mxGeometry x="0.2308" y="-12" width="50" height="50" relative="1" as="geometry">
                        <mxPoint x="3790" y="370" as="sourcePoint"/>
                        <mxPoint x="3840" y="320" as="targetPoint"/>
                        <Array as="points">
                            <mxPoint x="3640" y="-120"/>
                        </Array>
                        <mxPoint as="offset"/>
                    </mxGeometry>
                </mxCell>
                <mxCell id="93" value="h1" style="rounded=1;whiteSpace=wrap;html=1;strokeWidth=1;fontSize=14;" parent="1" vertex="1">
                    <mxGeometry x="3560" y="80" width="120" height="60" as="geometry"/>
                </mxCell>
                <mxCell id="94" value="span" style="rounded=1;whiteSpace=wrap;html=1;strokeWidth=1;fontSize=14;" parent="1" vertex="1">
                    <mxGeometry x="3680" y="200" width="120" height="60" as="geometry"/>
                </mxCell>
                <mxCell id="95" value="firstEffect" style="curved=1;endArrow=classic;html=1;fontSize=14;exitX=1;exitY=0.5;exitDx=0;exitDy=0;entryX=0.75;entryY=0;entryDx=0;entryDy=0;fillColor=#e51400;strokeColor=#FFFFFF;" parent="1" source="93" target="94" edge="1">
                    <mxGeometry x="0.2308" y="-12" width="50" height="50" relative="1" as="geometry">
                        <mxPoint x="3910" y="610" as="sourcePoint"/>
                        <mxPoint x="3960" y="560" as="targetPoint"/>
                        <Array as="points">
                            <mxPoint x="3760" y="120"/>
                        </Array>
                        <mxPoint as="offset"/>
                    </mxGeometry>
                </mxCell>
                <mxCell id="96" value="lastEffect" style="curved=1;endArrow=classic;html=1;fontSize=14;exitX=0.25;exitY=1;exitDx=0;exitDy=0;entryX=0;entryY=0.5;entryDx=0;entryDy=0;fillColor=#e51400;strokeColor=#FFFFFF;" parent="1" source="93" target="94" edge="1">
                    <mxGeometry x="-0.2308" y="12" width="50" height="50" relative="1" as="geometry">
                        <mxPoint x="3590" y="190" as="sourcePoint"/>
                        <mxPoint x="3680" y="280" as="targetPoint"/>
                        <Array as="points">
                            <mxPoint x="3600" y="220"/>
                        </Array>
                        <mxPoint as="offset"/>
                    </mxGeometry>
                </mxCell>
                <mxCell id="97" value="nextEffect" style="curved=1;endArrow=classic;html=1;fontSize=14;exitX=0.5;exitY=1;exitDx=0;exitDy=0;entryX=0.75;entryY=0;entryDx=0;entryDy=0;fillColor=#eeeeee;strokeColor=#FFFFFF;" parent="1" source="91" target="94" edge="1">
                    <mxGeometry x="0.1615" y="-32" width="50" height="50" relative="1" as="geometry">
                        <mxPoint x="3570" y="-120" as="sourcePoint"/>
                        <mxPoint x="3660" y="-30" as="targetPoint"/>
                        <Array as="points">
                            <mxPoint x="3759" y="50"/>
                        </Array>
                        <mxPoint as="offset"/>
                    </mxGeometry>
                </mxCell>
                <mxCell id="98" value="&#10;&lt;span style=&quot;color: rgb(240, 240, 240); font-family: Helvetica; font-size: 14px; font-style: normal; font-variant-ligatures: normal; font-variant-caps: normal; font-weight: 400; letter-spacing: normal; orphans: 2; text-align: center; text-indent: 0px; text-transform: none; widows: 2; word-spacing: 0px; -webkit-text-stroke-width: 0px; text-decoration-thickness: initial; text-decoration-style: initial; text-decoration-color: initial; float: none; display: inline !important;&quot;&gt;nextEffect&lt;/span&gt;&#10;&#10;" style="edgeStyle=none;html=1;exitX=0.5;exitY=1;exitDx=0;exitDy=0;strokeColor=#FFFFFF;fontSize=14;labelBackgroundColor=none;" parent="1" source="99" target="101" edge="1">
                    <mxGeometry relative="1" as="geometry">
                        <mxPoint as="offset"/>
                    </mxGeometry>
                </mxCell>
                <mxCell id="99" value="count变量" style="rounded=1;whiteSpace=wrap;html=1;strokeWidth=1;fontSize=14;" parent="1" vertex="1">
                    <mxGeometry x="3560" y="400" width="120" height="60" as="geometry"/>
                </mxCell>
                <mxCell id="100" value="nextEffect" style="curved=1;endArrow=classic;html=1;fontSize=14;exitX=0.75;exitY=1;exitDx=0;exitDy=0;entryX=1;entryY=0.5;entryDx=0;entryDy=0;fillColor=#eeeeee;strokeColor=#FFFFFF;" parent="1" source="94" target="99" edge="1">
                    <mxGeometry x="-0.2" y="-26" width="50" height="50" relative="1" as="geometry">
                        <mxPoint x="3774" y="345" as="sourcePoint"/>
                        <mxPoint x="3924" y="525" as="targetPoint"/>
                        <Array as="points">
                            <mxPoint x="3790" y="380"/>
                        </Array>
                        <mxPoint as="offset"/>
                    </mxGeometry>
                </mxCell>
                <mxCell id="101" value="button点我" style="rounded=1;whiteSpace=wrap;html=1;strokeWidth=1;fontSize=14;" parent="1" vertex="1">
                    <mxGeometry x="3560" y="520" width="120" height="60" as="geometry"/>
                </mxCell>
                <mxCell id="102" value="button点你" style="rounded=1;whiteSpace=wrap;html=1;strokeWidth=1;fontSize=14;" parent="1" vertex="1">
                    <mxGeometry x="3560" y="640" width="120" height="60" as="geometry"/>
                </mxCell>
                <mxCell id="103" value="&#10;&lt;span style=&quot;color: rgb(240, 240, 240); font-family: Helvetica; font-size: 14px; font-style: normal; font-variant-ligatures: normal; font-variant-caps: normal; font-weight: 400; letter-spacing: normal; orphans: 2; text-align: center; text-indent: 0px; text-transform: none; widows: 2; word-spacing: 0px; -webkit-text-stroke-width: 0px; text-decoration-thickness: initial; text-decoration-style: initial; text-decoration-color: initial; float: none; display: inline !important;&quot;&gt;nextEffect&lt;/span&gt;&#10;&#10;" style="edgeStyle=none;html=1;strokeColor=#FFFFFF;fontSize=14;labelBackgroundColor=none;entryX=0.5;entryY=0;entryDx=0;entryDy=0;" parent="1" target="102" edge="1">
                    <mxGeometry relative="1" as="geometry">
                        <mxPoint as="offset"/>
                        <mxPoint x="3620" y="580" as="sourcePoint"/>
                        <mxPoint x="3630" y="530" as="targetPoint"/>
                    </mxGeometry>
                </mxCell>
                <mxCell id="104" value="lastEffect" style="curved=1;endArrow=classic;html=1;fontSize=14;fillColor=#e51400;strokeColor=#FFFFFF;entryX=0;entryY=0.5;entryDx=0;entryDy=0;exitX=0.25;exitY=1;exitDx=0;exitDy=0;" parent="1" source="90" target="102" edge="1">
                    <mxGeometry x="0.4904" y="57" width="50" height="50" relative="1" as="geometry">
                        <mxPoint x="3480" y="-90" as="sourcePoint"/>
                        <mxPoint x="3570" y="560" as="targetPoint"/>
                        <Array as="points">
                            <mxPoint x="3430" y="630"/>
                        </Array>
                        <mxPoint as="offset"/>
                    </mxGeometry>
                </mxCell>
                <mxCell id="105" value="div&lt;br&gt;&lt;span style=&quot;color: rgb(255, 51, 51);&quot;&gt;（competedWork）&lt;/span&gt;" style="rounded=1;whiteSpace=wrap;html=1;strokeWidth=1;fontSize=14;" parent="1" vertex="1">
                    <mxGeometry x="3320" y="-280" width="120" height="60" as="geometry"/>
                </mxCell>
                <mxCell id="106" value="firstEffect" style="curved=1;endArrow=classic;html=1;fontSize=14;exitX=1;exitY=0.5;exitDx=0;exitDy=0;entryX=0.75;entryY=0;entryDx=0;entryDy=0;fillColor=#eeeeee;strokeColor=#FFFFFF;" parent="1" source="105" target="91" edge="1">
                    <mxGeometry x="-0.299" y="-15" width="50" height="50" relative="1" as="geometry">
                        <mxPoint x="3570" y="-120" as="sourcePoint"/>
                        <mxPoint x="3660" y="-30" as="targetPoint"/>
                        <Array as="points">
                            <mxPoint x="3650" y="-190"/>
                        </Array>
                        <mxPoint as="offset"/>
                    </mxGeometry>
                </mxCell>
                <mxCell id="107" value="lastEffect" style="curved=1;endArrow=classic;html=1;fontSize=14;fillColor=#e51400;strokeColor=#FFFFFF;entryX=0;entryY=0.5;entryDx=0;entryDy=0;exitX=0.25;exitY=1;exitDx=0;exitDy=0;" parent="1" source="105" target="102" edge="1">
                    <mxGeometry x="0.2685" y="60" width="50" height="50" relative="1" as="geometry">
                        <mxPoint x="3480" y="-90" as="sourcePoint"/>
                        <mxPoint x="3570" y="680" as="targetPoint"/>
                        <Array as="points">
                            <mxPoint x="3350" y="640"/>
                        </Array>
                        <mxPoint as="offset"/>
                    </mxGeometry>
                </mxCell>
                <mxCell id="108" value="App&lt;br&gt;&lt;span style=&quot;color: rgb(255, 51, 51);&quot;&gt;（returnFiber）&lt;/span&gt;" style="rounded=1;whiteSpace=wrap;html=1;strokeWidth=1;fontSize=14;" parent="1" vertex="1">
                    <mxGeometry x="3200" y="-400" width="120" height="60" as="geometry"/>
                </mxCell>
                <mxCell id="109" value="firstEffect" style="curved=1;endArrow=classic;html=1;fontSize=14;exitX=1;exitY=0.5;exitDx=0;exitDy=0;entryX=0.75;entryY=0;entryDx=0;entryDy=0;fillColor=#eeeeee;strokeColor=#FF3333;" parent="1" source="108" target="91" edge="1">
                    <mxGeometry x="-0.3498" y="-36" width="50" height="50" relative="1" as="geometry">
                        <mxPoint x="2690" y="-240" as="sourcePoint"/>
                        <mxPoint x="2900" y="-30" as="targetPoint"/>
                        <Array as="points">
                            <mxPoint x="3660" y="-330"/>
                        </Array>
                        <mxPoint as="offset"/>
                    </mxGeometry>
                </mxCell>
                <mxCell id="110" value="lastEffect" style="curved=1;endArrow=classic;html=1;fontSize=14;fillColor=#e51400;strokeColor=#FF3333;entryX=0;entryY=0.5;entryDx=0;entryDy=0;exitX=0.25;exitY=1;exitDx=0;exitDy=0;" parent="1" source="108" target="102" edge="1">
                    <mxGeometry x="0.1222" y="73" width="50" height="50" relative="1" as="geometry">
                        <mxPoint x="3260" y="-310" as="sourcePoint"/>
                        <mxPoint x="3438" y="555" as="targetPoint"/>
                        <Array as="points">
                            <mxPoint x="3240" y="660"/>
                        </Array>
                        <mxPoint as="offset"/>
                    </mxGeometry>
                </mxCell>
                <mxCell id="111" value="main" style="rounded=1;whiteSpace=wrap;html=1;strokeWidth=1;fontSize=14;" parent="1" vertex="1">
                    <mxGeometry x="4280" y="-160" width="120" height="60" as="geometry"/>
                </mxCell>
                <mxCell id="112" value="code" style="rounded=1;whiteSpace=wrap;html=1;strokeWidth=1;fontSize=14;" parent="1" vertex="1">
                    <mxGeometry x="4400" y="-40" width="120" height="60" as="geometry"/>
                </mxCell>
                <mxCell id="113" value="firstEffect" style="curved=1;endArrow=classic;html=1;fontSize=14;exitX=1;exitY=0.5;exitDx=0;exitDy=0;entryX=0.75;entryY=0;entryDx=0;entryDy=0;fillColor=#eeeeee;strokeColor=#FFFFFF;" parent="1" source="111" target="112" edge="1">
                    <mxGeometry x="0.2308" y="-12" width="50" height="50" relative="1" as="geometry">
                        <mxPoint x="4630" y="370" as="sourcePoint"/>
                        <mxPoint x="4680" y="320" as="targetPoint"/>
                        <Array as="points">
                            <mxPoint x="4480" y="-120"/>
                        </Array>
                        <mxPoint as="offset"/>
                    </mxGeometry>
                </mxCell>
                <mxCell id="114" value="h1" style="rounded=1;whiteSpace=wrap;html=1;strokeWidth=1;fontSize=14;" parent="1" vertex="1">
                    <mxGeometry x="4400" y="80" width="120" height="60" as="geometry"/>
                </mxCell>
                <mxCell id="115" value="span" style="rounded=1;whiteSpace=wrap;html=1;strokeWidth=1;fontSize=14;" parent="1" vertex="1">
                    <mxGeometry x="4520" y="200" width="120" height="60" as="geometry"/>
                </mxCell>
                <mxCell id="116" value="firstEffect" style="curved=1;endArrow=classic;html=1;fontSize=14;exitX=1;exitY=0.5;exitDx=0;exitDy=0;entryX=0.75;entryY=0;entryDx=0;entryDy=0;fillColor=#e51400;strokeColor=#FFFFFF;" parent="1" source="114" target="115" edge="1">
                    <mxGeometry x="0.2308" y="-12" width="50" height="50" relative="1" as="geometry">
                        <mxPoint x="4750" y="610" as="sourcePoint"/>
                        <mxPoint x="4800" y="560" as="targetPoint"/>
                        <Array as="points">
                            <mxPoint x="4600" y="120"/>
                        </Array>
                        <mxPoint as="offset"/>
                    </mxGeometry>
                </mxCell>
                <mxCell id="117" value="lastEffect" style="curved=1;endArrow=classic;html=1;fontSize=14;exitX=0.25;exitY=1;exitDx=0;exitDy=0;entryX=0;entryY=0.5;entryDx=0;entryDy=0;fillColor=#e51400;strokeColor=#FFFFFF;" parent="1" source="114" target="115" edge="1">
                    <mxGeometry x="-0.2308" y="12" width="50" height="50" relative="1" as="geometry">
                        <mxPoint x="4430" y="190" as="sourcePoint"/>
                        <mxPoint x="4520" y="280" as="targetPoint"/>
                        <Array as="points">
                            <mxPoint x="4440" y="220"/>
                        </Array>
                        <mxPoint as="offset"/>
                    </mxGeometry>
                </mxCell>
                <mxCell id="118" value="nextEffect" style="curved=1;endArrow=classic;html=1;fontSize=14;exitX=0.5;exitY=1;exitDx=0;exitDy=0;entryX=0.75;entryY=0;entryDx=0;entryDy=0;fillColor=#eeeeee;strokeColor=#FFFFFF;" parent="1" source="112" target="115" edge="1">
                    <mxGeometry x="0.1615" y="-32" width="50" height="50" relative="1" as="geometry">
                        <mxPoint x="4410" y="-120" as="sourcePoint"/>
                        <mxPoint x="4500" y="-30" as="targetPoint"/>
                        <Array as="points">
                            <mxPoint x="4599" y="50"/>
                        </Array>
                        <mxPoint as="offset"/>
                    </mxGeometry>
                </mxCell>
                <mxCell id="119" value="&#10;&lt;span style=&quot;color: rgb(240, 240, 240); font-family: Helvetica; font-size: 14px; font-style: normal; font-variant-ligatures: normal; font-variant-caps: normal; font-weight: 400; letter-spacing: normal; orphans: 2; text-align: center; text-indent: 0px; text-transform: none; widows: 2; word-spacing: 0px; -webkit-text-stroke-width: 0px; text-decoration-thickness: initial; text-decoration-style: initial; text-decoration-color: initial; float: none; display: inline !important;&quot;&gt;nextEffect&lt;/span&gt;&#10;&#10;" style="edgeStyle=none;html=1;exitX=0.5;exitY=1;exitDx=0;exitDy=0;strokeColor=#FFFFFF;fontSize=14;labelBackgroundColor=none;" parent="1" source="120" target="122" edge="1">
                    <mxGeometry relative="1" as="geometry">
                        <mxPoint as="offset"/>
                    </mxGeometry>
                </mxCell>
                <mxCell id="120" value="count变量" style="rounded=1;whiteSpace=wrap;html=1;strokeWidth=1;fontSize=14;" parent="1" vertex="1">
                    <mxGeometry x="4400" y="400" width="120" height="60" as="geometry"/>
                </mxCell>
                <mxCell id="121" value="nextEffect" style="curved=1;endArrow=classic;html=1;fontSize=14;exitX=0.75;exitY=1;exitDx=0;exitDy=0;entryX=1;entryY=0.5;entryDx=0;entryDy=0;fillColor=#eeeeee;strokeColor=#FFFFFF;" parent="1" source="115" target="120" edge="1">
                    <mxGeometry x="-0.2" y="-26" width="50" height="50" relative="1" as="geometry">
                        <mxPoint x="4614" y="345" as="sourcePoint"/>
                        <mxPoint x="4764" y="525" as="targetPoint"/>
                        <Array as="points">
                            <mxPoint x="4630" y="380"/>
                        </Array>
                        <mxPoint as="offset"/>
                    </mxGeometry>
                </mxCell>
                <mxCell id="122" value="button点我" style="rounded=1;whiteSpace=wrap;html=1;strokeWidth=1;fontSize=14;" parent="1" vertex="1">
                    <mxGeometry x="4400" y="520" width="120" height="60" as="geometry"/>
                </mxCell>
                <mxCell id="123" value="button点你" style="rounded=1;whiteSpace=wrap;html=1;strokeWidth=1;fontSize=14;" parent="1" vertex="1">
                    <mxGeometry x="4400" y="640" width="120" height="60" as="geometry"/>
                </mxCell>
                <mxCell id="124" value="&#10;&lt;span style=&quot;color: rgb(240, 240, 240); font-family: Helvetica; font-size: 14px; font-style: normal; font-variant-ligatures: normal; font-variant-caps: normal; font-weight: 400; letter-spacing: normal; orphans: 2; text-align: center; text-indent: 0px; text-transform: none; widows: 2; word-spacing: 0px; -webkit-text-stroke-width: 0px; text-decoration-thickness: initial; text-decoration-style: initial; text-decoration-color: initial; float: none; display: inline !important;&quot;&gt;nextEffect&lt;/span&gt;&#10;&#10;" style="edgeStyle=none;html=1;strokeColor=#FFFFFF;fontSize=14;labelBackgroundColor=none;entryX=0.5;entryY=0;entryDx=0;entryDy=0;" parent="1" target="123" edge="1">
                    <mxGeometry relative="1" as="geometry">
                        <mxPoint as="offset"/>
                        <mxPoint x="4460" y="580" as="sourcePoint"/>
                        <mxPoint x="4470" y="530" as="targetPoint"/>
                    </mxGeometry>
                </mxCell>
                <mxCell id="125" value="lastEffect" style="curved=1;endArrow=classic;html=1;fontSize=14;fillColor=#e51400;strokeColor=#FFFFFF;entryX=0;entryY=0.5;entryDx=0;entryDy=0;exitX=0.25;exitY=1;exitDx=0;exitDy=0;" parent="1" source="111" target="123" edge="1">
                    <mxGeometry x="0.4904" y="57" width="50" height="50" relative="1" as="geometry">
                        <mxPoint x="4320" y="-90" as="sourcePoint"/>
                        <mxPoint x="4410" y="560" as="targetPoint"/>
                        <Array as="points">
                            <mxPoint x="4270" y="630"/>
                        </Array>
                        <mxPoint as="offset"/>
                    </mxGeometry>
                </mxCell>
                <mxCell id="126" value="div" style="rounded=1;whiteSpace=wrap;html=1;strokeWidth=1;fontSize=14;" parent="1" vertex="1">
                    <mxGeometry x="4160" y="-280" width="120" height="60" as="geometry"/>
                </mxCell>
                <mxCell id="127" value="firstEffect" style="curved=1;endArrow=classic;html=1;fontSize=14;exitX=1;exitY=0.5;exitDx=0;exitDy=0;entryX=0.75;entryY=0;entryDx=0;entryDy=0;fillColor=#eeeeee;strokeColor=#FFFFFF;" parent="1" source="126" target="112" edge="1">
                    <mxGeometry x="-0.299" y="-15" width="50" height="50" relative="1" as="geometry">
                        <mxPoint x="4410" y="-120" as="sourcePoint"/>
                        <mxPoint x="4500" y="-30" as="targetPoint"/>
                        <Array as="points">
                            <mxPoint x="4490" y="-190"/>
                        </Array>
                        <mxPoint as="offset"/>
                    </mxGeometry>
                </mxCell>
                <mxCell id="128" value="lastEffect" style="curved=1;endArrow=classic;html=1;fontSize=14;fillColor=#e51400;strokeColor=#FFFFFF;entryX=0;entryY=0.5;entryDx=0;entryDy=0;exitX=0.25;exitY=1;exitDx=0;exitDy=0;" parent="1" source="126" target="123" edge="1">
                    <mxGeometry x="0.2685" y="60" width="50" height="50" relative="1" as="geometry">
                        <mxPoint x="4320" y="-90" as="sourcePoint"/>
                        <mxPoint x="4410" y="680" as="targetPoint"/>
                        <Array as="points">
                            <mxPoint x="4190" y="640"/>
                        </Array>
                        <mxPoint as="offset"/>
                    </mxGeometry>
                </mxCell>
                <mxCell id="129" value="App&lt;br&gt;&lt;span style=&quot;color: rgb(255, 51, 51);&quot;&gt;（competedWork）&lt;/span&gt;" style="rounded=1;whiteSpace=wrap;html=1;strokeWidth=1;fontSize=14;" parent="1" vertex="1">
                    <mxGeometry x="4040" y="-400" width="120" height="60" as="geometry"/>
                </mxCell>
                <mxCell id="130" value="firstEffect" style="curved=1;endArrow=classic;html=1;fontSize=14;exitX=1;exitY=0.5;exitDx=0;exitDy=0;entryX=0.75;entryY=0;entryDx=0;entryDy=0;fillColor=#eeeeee;strokeColor=#FFFFFF;" parent="1" source="129" target="112" edge="1">
                    <mxGeometry x="-0.3498" y="-36" width="50" height="50" relative="1" as="geometry">
                        <mxPoint x="3530" y="-240" as="sourcePoint"/>
                        <mxPoint x="3740" y="-30" as="targetPoint"/>
                        <Array as="points">
                            <mxPoint x="4500" y="-330"/>
                        </Array>
                        <mxPoint as="offset"/>
                    </mxGeometry>
                </mxCell>
                <mxCell id="131" value="lastEffect" style="curved=1;endArrow=classic;html=1;fontSize=14;fillColor=#e51400;strokeColor=#FFFFFF;entryX=0;entryY=0.5;entryDx=0;entryDy=0;exitX=0.25;exitY=1;exitDx=0;exitDy=0;" parent="1" source="129" target="123" edge="1">
                    <mxGeometry x="0.1222" y="73" width="50" height="50" relative="1" as="geometry">
                        <mxPoint x="4100" y="-310" as="sourcePoint"/>
                        <mxPoint x="4278" y="555" as="targetPoint"/>
                        <Array as="points">
                            <mxPoint x="4080" y="660"/>
                        </Array>
                        <mxPoint as="offset"/>
                    </mxGeometry>
                </mxCell>
                <mxCell id="132" value="rootFiber&lt;br&gt;&lt;span style=&quot;color: rgb(255, 51, 51);&quot;&gt;（returnFiber）&lt;/span&gt;" style="rounded=1;whiteSpace=wrap;html=1;strokeWidth=1;fontSize=14;" parent="1" vertex="1">
                    <mxGeometry x="3920" y="-520" width="120" height="60" as="geometry"/>
                </mxCell>
                <mxCell id="133" value="firstEffect" style="curved=1;endArrow=classic;html=1;fontSize=14;exitX=1;exitY=0.5;exitDx=0;exitDy=0;entryX=0.75;entryY=0;entryDx=0;entryDy=0;fillColor=#eeeeee;strokeColor=#FF3333;" parent="1" source="132" target="112" edge="1">
                    <mxGeometry x="-0.4266" y="-50" width="50" height="50" relative="1" as="geometry">
                        <mxPoint x="4080" y="-490" as="sourcePoint"/>
                        <mxPoint x="4410" y="-160" as="targetPoint"/>
                        <Array as="points">
                            <mxPoint x="4530" y="-490"/>
                        </Array>
                        <mxPoint as="offset"/>
                    </mxGeometry>
                </mxCell>
                <mxCell id="134" value="lastEffect" style="curved=1;endArrow=classic;html=1;fontSize=14;fillColor=#e51400;strokeColor=#FF3333;entryX=0;entryY=0.5;entryDx=0;entryDy=0;exitX=0.25;exitY=1;exitDx=0;exitDy=0;" parent="1" source="132" target="123" edge="1">
                    <mxGeometry x="-0.072" y="87" width="50" height="50" relative="1" as="geometry">
                        <mxPoint x="3900" y="-340" as="sourcePoint"/>
                        <mxPoint x="4230" y="670" as="targetPoint"/>
                        <Array as="points">
                            <mxPoint x="3910" y="660"/>
                        </Array>
                        <mxPoint as="offset"/>
                    </mxGeometry>
                </mxCell>
            </root>
        </mxGraphModel>
    </diagram>
</mxfile>